<?xml version="1.0" standalone="no"?>
<!DOCTYPE svg PUBLIC "-//W3C//DTD SVG 20010904//EN"
 "http://www.w3.org/TR/2001/REC-SVG-20010904/DTD/svg10.dtd">
<svg version="1.0" xmlns="http://www.w3.org/2000/svg"
 width="16.000000pt" height="16.000000pt" viewBox="0 0 16.000000 16.000000"
 preserveAspectRatio="xMidYMid meet">
<metadata>
Created by potrace 1.11, written by Peter Selinger 2001-2013
</metadata>
<g transform="translate(0.000000,16.000000) scale(0.011765,-0.011765)"
fill="#000000" stroke="none">
<path d="M998 1178 c-3 -71 -4 -73 -31 -76 l-27 -3 2 -377 3 -377 25 0 c24 0
25 -3 28 -72 2 -56 6 -73 17 -73 12 0 15 16 15 75 0 41 3 74 8 74 4 -1 17 -1
30 0 l22 1 0 375 0 375 -30 0 -30 0 0 75 c0 59 -3 75 -15 75 -11 0 -15 -17
-17 -72z"/>
<path d="M320 1196 c0 -36 -4 -46 -20 -51 -11 -3 -24 -3 -30 0 -7 4 -10 -82
-10 -254 l0 -261 30 0 c29 0 30 -1 30 -50 0 -38 4 -50 15 -50 11 0 15 12 15
50 0 49 1 50 30 50 l30 0 0 255 c0 219 -2 255 -15 256 -8 1 -21 2 -27 3 -8 1
-14 20 -16 49 -2 33 -7 47 -18 47 -10 0 -14 -12 -14 -44z"/>
<path d="M548 863 c-3 -44 -5 -48 -30 -51 l-28 -3 0 -255 0 -254 30 0 c29 0
30 -1 30 -50 0 -38 4 -50 15 -50 11 0 15 12 15 50 0 49 1 50 30 50 l30 0 0
255 0 255 -22 1 c-13 1 -26 1 -30 0 -5 0 -8 22 -8 49 0 37 -4 50 -14 50 -11 0
-16 -14 -18 -47z"/>
<path d="M775 387 c-4 -13 -5 -30 -3 -38 2 -9 -7 -15 -24 -17 l-28 -3 0 -95
c0 -94 0 -94 25 -94 23 0 25 -4 25 -40 0 -33 3 -40 20 -40 17 0 20 7 20 40 0
36 3 40 25 40 25 0 25 0 25 95 0 95 0 95 -25 95 -22 0 -25 4 -25 40 0 45 -25
57 -35 17z"/>
</g>
</svg>
